<svg xmlns="http://www.w3.org/2000/svg" viewBox="0 0 63.18 71.7"><defs><style>.cls-1{fill:#d8e8b0;}.cls-2{fill:#c8e2b0;}.cls-3{fill:#aed9b0;}.cls-4{fill:#98d2b0;}.cls-5{fill:#82ccb0;}.cls-6{fill:#4bc0af;}.cls-7{fill:#e6eeb3;}</style></defs><g id="Layer_2" data-name="Layer 2"><g id="Layer_1-2" data-name="Layer 1"><polygon class="cls-1" points="1.08 54.71 0 18.86 30.51 0 62.1 16.99 63.18 52.84 32.67 71.7 1.08 54.71"/><path class="cls-1" d="M30.51,0s1.56,35,1.08,35.85S62.1,17,62.1,17Z"/><polygon class="cls-2" points="32.07 34.95 62.1 16.99 30.51 0 32.07 34.95"/><polygon class="cls-3" points="63.18 52.84 32.07 34.95 62.1 16.99 63.18 52.84"/><polygon class="cls-4" points="32.67 71.7 32.07 34.95 63.18 52.84 32.67 71.7"/><polygon class="cls-5" points="1.25 55.38 31.66 34.74 33.31 71.46 1.25 55.38"/><polygon class="cls-6" points="0 18.86 32.07 34.95 1.08 54.71 0 18.86"/><polygon class="cls-7" points="41.9 39.95 32.66 45.96 22.84 40.96 22.25 29.96 31.49 23.95 41.31 28.94 41.9 39.95"/></g></g></svg>